<?xml version="1.0" encoding="UTF-8"?>
<svg width="12px" height="12px" viewBox="0 0 12 12" version="1.1" xmlns="http://www.w3.org/2000/svg" xmlns:xlink="http://www.w3.org/1999/xlink">
    <!-- Generator: Sketch 55 (78076) - https://sketchapp.com -->
    <title>icon/font-settings</title>
    <desc>Created with Sketch.</desc>
    <g id="icon/font-settings" stroke="none" stroke-width="1" fill="none" fill-rule="evenodd" stroke-linejoin="round">
        <path d="M9.20380598,5.64633423 C9.21590997,5.76257058 9.22211432,5.88056074 9.22211432,6 C9.22211432,6.11943926 9.21590997,6.23742942 9.20380598,6.35366577 L10.1942286,7.47057714 L9.29422863,9.02942286 L7.83169857,8.73013813 C7.64150107,8.86863401 7.43627711,8.98773834 7.21893257,9.08454525 L6.74711432,10.5 L4.94711432,10.5 L4.47529607,9.08454525 C4.25795152,8.98773834 4.05272757,8.86863401 3.86253006,8.73013813 L2.4,9.02942286 L1.5,7.47057714 L2.49042266,6.35366577 C2.47831867,6.23742942 2.47211432,6.11943926 2.47211432,6 C2.47211432,5.88056074 2.47831867,5.76257058 2.49042266,5.64633423 L1.5,4.52942286 L2.4,2.97057714 L3.86253006,3.26986187 C4.05272757,3.13136599 4.25795152,3.01226166 4.47529607,2.91545475 L4.94711432,1.5 L6.74711432,1.5 L7.21893257,2.91545475 C7.43627711,3.01226166 7.64150107,3.13136599 7.83169857,3.26986187 L9.29422863,2.97057714 L10.1942286,4.52942286 L9.20380598,5.64633423 Z M6,6.5 C6.27614237,6.5 6.5,6.27614237 6.5,6 C6.5,5.72385763 6.27614237,5.5 6,5.5 C5.72385763,5.5 5.5,5.72385763 5.5,6 C5.5,6.27614237 5.72385763,6.5 6,6.5 Z" id="Combined-Shape" stroke="#B6C1CE"></path>
    </g>
</svg>